<?xml version="1.0" standalone="no"?><!DOCTYPE svg PUBLIC "-//W3C//DTD SVG 1.1//EN" "http://www.w3.org/Graphics/SVG/1.1/DTD/svg11.dtd"><svg height="2000" node-id="1" sillyvg="true" template-height="2000" template-width="2000" version="1.1" viewBox="0 0 2000 2000" width="2000" xmlns="http://www.w3.org/2000/svg" xmlns:xlink="http://www.w3.org/1999/xlink"><defs node-id="627"><linearGradient gradientUnits="userSpaceOnUse" id="SVGID_1_" node-id="7" spreadMethod="pad" x1="1575.2732" x2="1575.2732" y1="1333.5264" y2="-990.6652"><stop offset="0.2597" stop-color="#ffffff"></stop><stop offset="1" stop-color="#6397f7"></stop></linearGradient><linearGradient gradientUnits="userSpaceOnUse" id="SVGID_00000150805805756013777730000006906707470929355955_" node-id="12" spreadMethod="pad" x1="1367.0226" x2="1367.0226" y1="1485.3397" y2="-838.8519"><stop offset="0.2597" stop-color="#ffffff"></stop><stop offset="1" stop-color="#6397f7"></stop></linearGradient><linearGradient gradientUnits="userSpaceOnUse" id="SVGID_00000135671515448391705760000002466687089855710594_" node-id="17" spreadMethod="pad" x1="237.765" x2="237.765" y1="1692.5669" y2="222.7671"><stop offset="0.2597" stop-color="#ffffff"></stop><stop offset="1" stop-color="#6397f7"></stop></linearGradient><linearGradient gradientUnits="userSpaceOnUse" id="SVGID_00000142144474950391866040000016893547186343389853_" node-id="21" spreadMethod="pad" x1="663.3768" x2="663.3768" y1="1676.0184" y2="-10.8862"><stop offset="0.2597" stop-color="#ffffff"></stop><stop offset="1" stop-color="#6397f7"></stop></linearGradient><linearGradient gradientUnits="userSpaceOnUse" id="SVGID_00000012437829524228196980000010972531691358182075_" node-id="25" spreadMethod="pad" x1="439.152" x2="439.152" y1="1551.8156" y2="-109.0365"><stop offset="0.2597" stop-color="#ffffff"></stop><stop offset="1" stop-color="#6397f7"></stop></linearGradient><linearGradient gradientUnits="userSpaceOnUse" id="SVGID_00000068671577087829597050000014688702531389620407_" node-id="30" spreadMethod="pad" x1="175.2054" x2="186.4241" y1="652.9139" y2="235.5508"><stop offset="0" stop-color="#ffffff"></stop><stop offset="1" stop-color="#6397f7"></stop></linearGradient><linearGradient gradientUnits="userSpaceOnUse" id="SVGID_00000114757312243853140740000016686273793489696135_" node-id="35" spreadMethod="pad" x1="1201.2517" x2="1201.2517" y1="221.8104" y2="-53.2877"><stop offset="0" stop-color="#ffffff"></stop><stop offset="1" stop-color="#6397f7"></stop></linearGradient><linearGradient gradientUnits="userSpaceOnUse" id="SVGID_00000146485063754518836140000002757160639755117999_" node-id="41" spreadMethod="pad" x1="1562.2788" x2="1562.2788" y1="1495.0356" y2="1366.8394"><stop offset="0" stop-color="#ffffff"></stop><stop offset="1" stop-color="#6397f7"></stop></linearGradient><linearGradient gradientUnits="userSpaceOnUse" id="SVGID_00000083796499055682991490000017602005149613031560_" node-id="46" spreadMethod="pad" x1="1562.6564" x2="1560.566" y1="1334.3372" y2="1599.2554"><stop offset="0" stop-color="#ffffff"></stop><stop offset="1" stop-color="#6397f7"></stop></linearGradient><linearGradient gradientUnits="userSpaceOnUse" id="SVGID_00000135648476914804071010000003183527549074320031_" node-id="52" spreadMethod="pad" x1="503.7863" x2="503.7863" y1="1555.1084" y2="1428.71"><stop offset="0" stop-color="#ffffff"></stop><stop offset="1" stop-color="#6397f7"></stop></linearGradient><linearGradient gradientUnits="userSpaceOnUse" id="SVGID_00000158742110369709697890000004735776398130775694_" node-id="57" spreadMethod="pad" x1="504.1047" x2="502.3421" y1="1409.5726" y2="1632.9598"><stop offset="0" stop-color="#ffffff"></stop><stop offset="1" stop-color="#6397f7"></stop></linearGradient><linearGradient gradientUnits="userSpaceOnUse" id="SVGID_00000011719030243354261480000011119856936018955933_" node-id="63" spreadMethod="pad" x1="226.2006" x2="226.2006" y1="1868.7142" y2="1706.4114"><stop offset="0" stop-color="#ffffff"></stop><stop offset="1" stop-color="#6397f7"></stop></linearGradient><linearGradient gradientUnits="userSpaceOnUse" id="SVGID_00000034788719963291721610000015383503020562497686_" node-id="68" spreadMethod="pad" x1="226.6786" x2="224.0322" y1="1665.262" y2="2000.6614"><stop offset="0" stop-color="#ffffff"></stop><stop offset="1" stop-color="#6397f7"></stop></linearGradient><linearGradient gradientUnits="userSpaceOnUse" id="SVGID_00000075147329450696822860000011022983389301287304_" node-id="73" spreadMethod="pad" x1="1001.2857" x2="1001.2857" y1="1980.6039" y2="459.3243"><stop offset="0.2597" stop-color="#ffffff"></stop><stop offset="1" stop-color="#6397f7"></stop></linearGradient></defs><path d="M 0.00 2.00 L 2000.00 2.00 L 2000.00 2002.00 L 0.00 2002.00 Z" fill="#ffffff" fill-rule="nonzero" node-id="716" stroke="none" target-height="2000" target-width="2000" target-x="0" target-y="2"></path><g node-id="790"><path d="M 1930.60 810.56 C 1930.60 957.93 1893.16 1099.26 1826.53 1203.46 C 1759.89 1307.67 1669.51 1366.21 1575.27 1366.21 C 1481.03 1366.21 1390.65 1307.67 1324.01 1203.46 C 1257.38 1099.26 1219.94 957.93 1219.94 810.56 C 1219.94 663.19 1257.38 521.86 1324.01 417.66 C 1390.65 313.45 1481.03 254.91 1575.27 254.91 C 1669.51 254.91 1759.89 313.45 1826.53 417.66 C 1893.16 521.86 1930.60 663.19 1930.60 810.56 Z" fill="url(#SVGID_1_)" fill-opacity="0.57" fill-rule="nonzero" group-id="1" node-id="720" stroke="none" target-height="1111.2999" target-width="710.66003" target-x="1219.94" target-y="254.91"></path></g><g node-id="791"><path d="M 1722.35 962.38 C 1722.35 1109.75 1684.91 1251.08 1618.28 1355.28 C 1551.64 1459.49 1461.26 1518.03 1367.02 1518.03 C 1272.78 1518.03 1182.40 1459.49 1115.76 1355.28 C 1049.13 1251.08 1011.69 1109.75 1011.69 962.38 C 1011.69 815.01 1049.13 673.68 1115.76 569.48 C 1182.40 465.27 1272.78 406.73 1367.02 406.73 C 1461.26 406.73 1551.64 465.27 1618.28 569.48 C 1684.91 673.68 1722.35 815.01 1722.35 962.38 Z" fill="url(#SVGID_00000150805805756013777730000006906707470929355955_)" fill-opacity="0.57" fill-rule="nonzero" group-id="2" node-id="725" stroke="none" target-height="1111.3" target-width="710.66" target-x="1011.69" target-y="406.73"></path></g><g node-id="792"><path d="M 306.22 1010.46 L 169.31 1010.46 C 154.66 1010.46 142.78 1022.34 142.78 1036.99 L 142.78 1686.71 C 142.78 1701.36 154.66 1713.24 169.31 1713.24 L 306.22 1713.24 C 320.87 1713.24 332.75 1701.36 332.75 1686.71 L 332.75 1036.99 C 332.75 1022.34 320.87 1010.46 306.22 1010.46 Z M 217.82 1259.60 L 189.50 1259.60 L 189.50 1201.47 L 217.82 1201.47 L 217.82 1259.60 Z M 217.82 1143.33 L 189.50 1143.33 L 189.50 1085.20 L 217.82 1085.20 L 217.82 1143.33 Z" fill="url(#SVGID_00000135671515448391705760000002466687089855710594_)" fill-rule="nonzero" group-id="3" node-id="730" stroke="none" target-height="702.77997" target-width="189.97" target-x="142.78" target-y="1010.46"></path><path d="M 663.90 893.16 L 568.40 996.97 L 568.40 1699.75 L 758.37 1699.75 L 758.37 1699.75 L 758.37 996.97 L 663.90 893.16 Z M 641.06 1111.75 L 609.92 1111.75 L 609.92 1047.83 L 641.06 1047.83 L 641.06 1111.75 Z" fill="url(#SVGID_00000142144474950391866040000016893547186343389853_)" fill-rule="nonzero" group-id="3" node-id="732" stroke="none" target-height="806.59" target-width="189.96997" target-x="568.4" target-y="893.16"></path><path d="M 555.36 781.05 L 322.95 781.05 C 308.30 781.05 296.42 792.93 296.42 807.58 L 296.42 1548.65 C 296.42 1563.30 308.30 1575.18 322.95 1575.18 L 555.36 1575.18 C 570.01 1575.18 581.89 1563.30 581.89 1548.65 L 581.89 807.57 C 581.89 792.92 570.01 781.05 555.36 781.05 Z M 342.09 860.98 L 381.54 860.98 L 381.54 941.95 L 342.09 941.95 L 342.09 860.98 Z M 419.95 1127.76 L 380.50 1127.76 L 380.50 1046.79 L 419.95 1046.79 L 419.95 1127.76 Z" fill="url(#SVGID_00000012437829524228196980000010972531691358182075_)" fill-rule="nonzero" group-id="3" node-id="734" stroke="none" target-height="794.13007" target-width="285.47" target-x="296.42" target-y="781.05"></path></g><g node-id="793"><path d="M 310.46 585.20 C 310.46 553.50 284.82 527.79 253.15 527.68 C 243.39 494.67 212.84 470.59 176.67 470.59 C 145.11 470.59 117.83 488.93 104.90 515.53 C 70.91 516.83 43.75 544.79 43.75 579.10 C 43.75 614.24 72.24 642.73 107.38 642.73 C 107.53 642.73 107.67 642.73 107.82 642.72 L 107.82 643.60 L 253.81 643.60 L 253.81 642.72 C 285.18 642.25 310.46 616.68 310.46 585.20 Z" fill="url(#SVGID_00000068671577087829597050000014688702531389620407_)" fill-rule="nonzero" group-id="4" node-id="739" stroke="none" target-height="173.00998" target-width="266.71" target-x="43.75" target-y="470.59"></path></g><g node-id="794"><path d="M 1298.10 197.41 C 1298.10 180.87 1284.69 167.46 1268.15 167.46 C 1266.10 167.46 1264.10 167.67 1262.16 168.06 C 1255.33 156.01 1242.40 147.87 1227.56 147.87 C 1227.17 147.87 1226.79 147.89 1226.41 147.90 C 1225.69 125.19 1207.06 107.01 1184.18 107.01 C 1161.29 107.01 1142.66 125.22 1141.95 147.94 C 1121.03 149.08 1104.41 166.41 1104.41 187.62 C 1104.41 208.44 1120.42 225.51 1140.80 227.21 L 1140.80 227.36 L 1268.44 227.36 L 1268.44 227.35 C 1284.84 227.20 1298.10 213.86 1298.10 197.41 Z" fill="url(#SVGID_00000114757312243853140740000016686273793489696135_)" fill-opacity="0.79" fill-rule="nonzero" group-id="5" node-id="744" stroke="none" target-height="120.35" target-width="193.68994" target-x="1104.41" target-y="107.01"></path></g><g node-id="795"><g node-id="799"><path d="M 1555.12 1435.54 L 1569.43 1435.54 L 1569.43 1496.84 L 1555.12 1496.84 Z" fill="url(#SVGID_00000146485063754518836140000002757160639755117999_)" fill-rule="nonzero" group-id="6,10" node-id="751" stroke="none" target-height="61.299927" target-width="14.310059" target-x="1555.12" target-y="1435.54"></path></g><path d="M 1592.51 1372.02 C 1588.06 1359.62 1576.20 1350.75 1562.27 1350.75 C 1546.80 1350.75 1533.89 1361.68 1530.84 1376.24 C 1516.76 1379.64 1506.30 1392.33 1506.30 1407.46 C 1506.30 1425.20 1520.68 1439.58 1538.42 1439.58 C 1539.05 1439.58 1539.68 1439.56 1540.31 1439.52 C 1545.87 1444.14 1553.02 1446.92 1560.81 1446.92 C 1570.64 1446.92 1579.44 1442.50 1585.34 1435.54 C 1585.48 1435.54 1585.63 1435.55 1585.77 1435.55 C 1603.51 1435.55 1617.89 1421.17 1617.89 1403.43 C 1617.89 1388.00 1607.01 1375.12 1592.51 1372.02 Z" fill="url(#SVGID_00000083796499055682991490000017602005149613031560_)" fill-rule="nonzero" group-id="6,11" node-id="756" stroke="none" target-height="96.170044" target-width="111.589966" target-x="1506.3" target-y="1350.75"></path></g><g node-id="796"><g node-id="801"><path d="M 497.75 1494.91 L 509.82 1494.91 L 509.82 1546.60 L 497.75 1546.60 Z" fill="url(#SVGID_00000135648476914804071010000003183527549074320031_)" fill-rule="nonzero" group-id="7,12" node-id="764" stroke="none" target-height="51.68994" target-width="12.070007" target-x="497.75" target-y="1494.91"></path></g><path d="M 529.28 1441.35 C 525.53 1430.90 515.53 1423.42 503.78 1423.42 C 490.74 1423.42 479.85 1432.64 477.28 1444.92 C 465.41 1447.79 456.58 1458.49 456.58 1471.24 C 456.58 1486.20 468.70 1498.32 483.66 1498.32 C 484.19 1498.32 484.72 1498.30 485.25 1498.27 C 489.94 1502.17 495.97 1504.51 502.54 1504.51 C 510.83 1504.51 518.25 1500.78 523.22 1494.91 C 523.34 1494.91 523.46 1494.91 523.59 1494.91 C 538.55 1494.91 550.67 1482.79 550.67 1467.83 C 550.68 1454.82 541.51 1443.96 529.28 1441.35 Z" fill="url(#SVGID_00000158742110369709697890000004735776398130775694_)" fill-rule="nonzero" group-id="7,13" node-id="769" stroke="none" target-height="81.089966" target-width="94.100006" target-x="456.58" target-y="1423.42"></path></g><g node-id="797"><g node-id="803"><path d="M 217.14 1793.39 L 235.26 1793.39 L 235.26 1870.99 L 217.14 1870.99 Z" fill="url(#SVGID_00000011719030243354261480000011119856936018955933_)" fill-rule="nonzero" group-id="8,14" node-id="777" stroke="none" target-height="77.599976" target-width="18.119995" target-x="217.14" target-y="1793.39"></path></g><path d="M 264.48 1712.97 C 258.85 1697.27 243.84 1686.05 226.20 1686.05 C 206.62 1686.05 190.27 1699.89 186.41 1718.32 C 168.58 1722.63 155.34 1738.69 155.34 1757.84 C 155.34 1780.30 173.54 1798.50 196.00 1798.50 C 196.80 1798.50 197.60 1798.47 198.39 1798.43 C 205.43 1804.28 214.48 1807.80 224.35 1807.80 C 236.80 1807.80 247.94 1802.20 255.40 1793.39 C 255.58 1793.39 255.76 1793.40 255.95 1793.40 C 278.41 1793.40 296.61 1775.20 296.61 1752.74 C 296.60 1733.20 282.84 1716.89 264.48 1712.97 Z" fill="url(#SVGID_00000034788719963291721610000015383503020562497686_)" fill-rule="nonzero" group-id="8,15" node-id="782" stroke="none" target-height="121.75" target-width="141.26999" target-x="155.34" target-y="1686.05"></path></g><path d="M 1939.56 2002.00 C 1970.73 1947.92 1987.57 1890.20 1987.57 1830.26 C 1987.57 1523.38 1545.99 1274.61 1001.28 1274.61 C 456.57 1274.61 15.00 1523.38 15.00 1830.26 C 15.00 1890.20 31.85 1947.92 63.01 2002.00 L 1939.56 2002.00 Z" fill="url(#SVGID_00000075147329450696822860000011022983389301287304_)" fill-opacity="0.68" fill-rule="nonzero" group-id="9" node-id="788" stroke="none" target-height="727.39" target-width="1972.57" target-x="15" target-y="1274.61"></path></svg>