<?xml version="1.0" standalone="no"?><!DOCTYPE svg PUBLIC "-//W3C//DTD SVG 1.1//EN" "http://www.w3.org/Graphics/SVG/1.1/DTD/svg11.dtd"><svg t="1705930915584" class="icon" viewBox="0 0 2228 1024" version="1.1" xmlns="http://www.w3.org/2000/svg" p-id="3650" xmlns:xlink="http://www.w3.org/1999/xlink" width="435.15625" height="200"><path d="M1081.6 441.742222s49.967407-99.176296 110.364444-73.291852c64.948148 27.828148-0.948148 179.01037-97.374814 203.235556-85.333333-24.225185-137.291852-86.376296-131.697778-145.73037 6.21037-66.228148 73.291852-90.88 118.708148 15.786666z" fill="#424242" p-id="3651"></path><path d="M1094.58963 588.278519c-1.517037 0-3.034074-0.18963-4.551111-0.616297-91.211852-25.884444-150.281481-93.013333-143.691852-163.223703 3.65037-38.779259 25.125926-66.797037 54.708148-71.395556 14.980741-2.37037 50.10963-0.616296 82.062222 54.518518 22.044444-31.336296 64.284444-76.231111 115.38963-54.328888 25.362963 10.856296 38.352593 36.503704 35.697777 70.352592-4.977778 62.814815-61.914074 145.73037-135.585185 164.219259-1.327407 0.331852-2.702222 0.521481-4.029629 0.521482z m-85.522963-202.714075c-0.995556 0-1.943704 0.094815-2.891852 0.237037-13.89037 2.180741-24.651852 18.915556-26.785185 41.718519-4.882963 52.148148 43.377778 105.007407 115.342222 126.90963 55.561481-16.64 102.447407-84.29037 106.382222-133.49926 1.564444-19.579259-3.697778-32.094815-15.691852-37.262222-44.657778-19.105185-88.604444 64.663704-89.031111 65.517037a16.412444 16.412444 0 0 1-15.36 9.102222 16.497778 16.497778 0 0 1-14.696296-10.05037c-19.816296-46.554074-42.524444-62.625185-57.268148-62.625185zM1922.986667 750.506667c-6.542222 0-12.752593-3.887407-15.36-10.334815-3.460741-8.485926 0.616296-18.157037 9.102222-21.617778 0.711111-0.284444 73.14963-30.90963 61.487407-84.053333-2.133333-9.765926-6.305185-16.165926-12.8-19.626667-14.032593-7.442963-36.977778-1.232593-44.61037 1.801482-8.533333 3.365926-18.157037-0.758519-21.522963-9.244445-3.413333-8.485926 0.663704-18.10963 9.14963-21.522963 4.219259-1.706667 42.287407-16.260741 72.391111-0.379259 10.619259 5.594074 24.414815 17.445926 29.771852 41.908148 17.635556 80.402963-77.321481 120.225185-81.351112 121.884444-2.038519 0.853333-4.171852 1.232593-6.257777 1.232593zM1676.183704 843.235556c-35.460741 0-73.576296-4.408889-112.924445-15.407408-172.657778-48.308148-135.585185-247.22963-135.158518-249.220741 1.754074-9.007407 10.477037-14.838519 19.484444-13.084444 9.007407 1.754074 14.838519 10.477037 13.084445 19.484444-1.374815 7.063704-31.383704 170.856296 111.549629 210.868149 157.44 44.041481 285.202963-26.405926 297.813334-37.973334a16.625778 16.625778 0 0 1 23.466666 0.995556c6.21037 6.731852 5.736296 17.256296-0.995555 23.466666-19.247407 17.635556-104.912593 60.871111-216.272593 60.871112zM1328.877037 843.188148c-2.891852 0-5.783704-0.758519-8.438518-2.322963-33.374815-19.768889-51.294815-43.093333-53.285926-69.309629-2.654815-34.74963 23.988148-59.496296 32.189629-66.228149 1.991111-1.611852 4.361481-3.365926 6.968889-5.214814 15.502222-11.093333 21.902222-16.734815 11.472593-34.93926-27.259259-47.454815 16.402963-93.060741 18.299259-95.004444a16.597333 16.597333 0 0 1 23.798518 23.134815c-0.284444 0.284444-28.065185 29.724444-13.321481 55.324444 25.884444 45.037037-6.921481 68.456296-20.906667 78.459259-1.943704 1.374815-3.697778 2.654815-5.167407 3.84-3.65037 2.986667-21.665185 18.773333-20.195556 38.068149 1.422222 18.441481 20.954074 33.706667 37.12 43.282963 7.86963 4.693333 10.477037 14.838519 5.831111 22.755555a16.611556 16.611556 0 0 1-14.269629 8.154074zM1367.419259 535.324444h-0.995555a16.587852 16.587852 0 0 1-15.597037-17.493333c0.142222-2.74963 4.219259-67.84 34.844444-135.585185 41.528889-91.922963 111.786667-143.786667 203.235556-149.902222 9.054815-0.568889 17.066667 6.305185 17.682963 15.454815 0.616296 9.14963-6.305185 17.066667-15.454815 17.682962-79.312593 5.30963-138.097778 48.924444-174.838519 129.611852-28.302222 62.245926-32.284444 124.112593-32.331852 124.728889a16.568889 16.568889 0 0 1-16.545185 15.597037zM1660.965926 256.094815c-5.594074 0-11.093333-2.844444-14.174815-8.011852-9.386667-15.597037-19.531852-48.402963 1.801482-72.438519a16.540444 16.540444 0 0 1 23.419259-1.374814c6.826667 6.068148 7.49037 16.592593 1.374815 23.419259-10.382222 11.662222 1.754074 33.137778 1.848889 33.374815 4.598519 7.86963 2.038519 18.062222-5.831112 22.708148-2.654815 1.564444-5.594074 2.322963-8.485925 2.322963zM2044.491852 470.423704c-6.4 0-12.468148-3.697778-15.217778-9.908148-45.463704-103.348148-110.127407-170.571852-192.18963-199.822223-61.202963-21.807407-110.032593-13.226667-110.506666-13.179259-9.007407 1.659259-17.635556-4.266667-19.342222-13.274074s4.219259-17.635556 13.226666-19.342222c2.275556-0.426667 56.651852-10.287407 125.866667 13.842963 63.194074 22.044444 151.514074 77.795556 213.333333 218.358518a16.602074 16.602074 0 0 1-15.17037 23.277037zM2126.127407 833.042963a16.559407 16.559407 0 0 1-13.463703-26.216296c20.48-28.681481 29.013333-53.096296 25.315555-72.533334-2.702222-14.26963-12.278519-26.500741-29.155555-37.451852-1.754074-1.137778-3.555556-2.228148-5.357037-3.318518-26.974815-16.402963-49.967407-36.93037-35.271111-106.761482 11.52-54.708148-11.994074-67.271111-12.98963-67.792592l0.474074 0.18963 12.98963-30.530371c2.038519 0.853333 49.445926 22.044444 32 104.96-11.093333 52.622222 2.654815 61.013333 20.053333 71.585185 2.085926 1.28 4.124444 2.512593 6.115556 3.792593 24.604444 15.881481 39.300741 35.792593 43.757037 59.06963 5.451852 28.681481-4.93037 61.677037-30.90963 98.038518-3.223704 4.551111-8.343704 6.968889-13.511111 6.968889zM712.059259 571.06963c-0.521481 0-0.995556 0-1.517037-0.047408a16.587852 16.587852 0 0 1-15.028148-18.014815c2.654815-29.060741-12.894815-39.632593-13.558518-40.059259-7.86963-4.693333-10.334815-14.743704-5.641482-22.660741 4.693333-7.86963 15.028148-10.382222 22.897778-5.736296 1.374815 0.805926 33.991111 20.764444 29.392592 71.442963a16.57837 16.57837 0 0 1-16.497777 15.075556zM541.819259 560.45037c-8.011852 0-15.028148-5.783704-16.355555-13.937777-1.46963-9.054815 4.693333-17.588148 13.748148-19.010371 28.776296-4.645926 35.176296-22.328889 35.460741-23.087407 2.56-8.817778 11.70963-13.653333 20.527407-11.093334 8.817778 2.56 13.795556 11.946667 11.235556 20.764445-0.426667 1.564444-11.662222 38.115556-61.914075 46.222222-0.900741 0.142222-1.801481 0.237037-2.654814 0.237037zM824.794074 435.152593c-41.528889 0-55.845926-21.665185-87.182222-69.167408-4.171852-6.305185-8.722963-13.226667-13.748148-20.717037-37.025185-55.134815-105.955556-66.939259-106.666667-67.081481a16.635259 16.635259 0 0 1-13.748148-19.010371c1.46963-9.054815 9.908148-15.17037 18.962963-13.748148 3.413333 0.521481 83.721481 13.985185 128.995555 81.351111 5.072593 7.585185 9.671111 14.554074 13.890371 20.906667 31.336296 47.454815 37.30963 54.281481 59.496296 54.281481 9.14963 0 16.592593 7.442963 16.592593 16.592593s-7.442963 16.592593-16.592593 16.592593zM272.071111 280.272593c-13.842963 0-22.328889-2.275556-23.087407-2.465186a16.658963 16.658963 0 0 1-11.567408-20.432592 16.583111 16.583111 0 0 1 20.290371-11.567408c1.422222 0.331852 28.871111 6.921481 67.223703-11.851851 49.208889-24.13037 109.558519-17.635556 112.118519-17.351112 9.102222 1.042963 15.644444 9.244444 14.601481 18.346667-1.042963 9.102222-9.244444 15.691852-18.346666 14.601482-0.521481-0.047407-53.428148-5.594074-93.81926 14.174814-27.354074 13.368889-51.152593 16.545185-67.508148 16.545186zM520.580741 256.142222c-4.93037 0-9.813333-2.180741-13.084445-6.4a16.587852 16.587852 0 0 1 2.891852-23.277037c3.365926-2.607407 3.508148-19.626667-1.09037-34.986666-2.607407-8.77037 2.37037-18.014815 11.140741-20.66963 8.77037-2.654815 18.014815 2.322963 20.669629 11.093333 2.56 8.485926 14.127407 51.768889-10.334815 70.779259-3.034074 2.37037-6.637037 3.508148-10.192592 3.508149zM290.512593 590.980741c-8.248889 0-15.407407-6.115556-16.450371-14.554074a16.597333 16.597333 0 0 1 14.411852-18.536297c77.700741-9.718519 92.397037-49.398519 92.965926-51.105185 2.702222-8.77037 11.946667-13.511111 20.717037-10.808889 8.77037 2.702222 13.605926 12.136296 10.903704 20.906667-0.758519 2.512593-20.100741 61.392593-120.462222 73.955556-0.711111 0.094815-1.374815 0.142222-2.085926 0.142222zM410.974815 593.114074c-8.77037 0-16.118519-6.874074-16.545185-15.739259a16.592593 16.592593 0 0 1 15.739259-17.398519c80.592593-4.077037 93.534815-73.481481 94.056296-76.42074 1.564444-9.007407 10.145185-15.075556 19.105185-13.558519 9.007407 1.517037 15.122963 9.955556 13.653334 18.962963-5.546667 34.133333-38.874074 99.84-125.108148 104.154074h-0.853334zM795.117037 554.334815c-1.754074 0-3.555556-0.284444-5.30963-0.900741a16.583111 16.583111 0 0 1-10.382222-21.048889c6.58963-19.531852-4.693333-52.432593-9.623704-63.478518-3.745185-8.343704 0-18.157037 8.343704-21.902223s18.157037 0 21.902222 8.343704c2.37037 5.262222 22.708148 52.337778 10.808889 87.703704a16.606815 16.606815 0 0 1-15.739259 11.282963zM103.158519 588.278519c-4.598519 0-9.14963-1.896296-12.420741-5.594075a16.583111 16.583111 0 0 1 1.469629-23.419259c16.497778-14.601481 17.540741-28.112593 18.014815-65.137778 0.18963-14.791111 0.426667-33.185185 2.417778-54.85037 9.481481-102.826667 110.506667-133.688889 114.773333-134.968889 8.722963-2.607407 18.014815 2.417778 20.622223 11.235556a16.592593 16.592593 0 0 1-11.188149 20.574815c-3.508148 1.042963-83.768889 26.121481-91.164444 106.192592-1.896296 20.385185-2.085926 37.30963-2.275556 52.242963-0.474074 37.451852-0.853333 64.521481-29.25037 89.552593-3.176296 2.797037-7.063704 4.171852-10.951111 4.171852zM218.121481 743.253333c-20.574815 0-59.117037-18.583704-82.251851-44.942222-23.277037-26.453333-29.345185-56.888889-17.635556-87.988148 10.477037-27.875556 28.112593-39.016296 41.102222-43.472593 34.512593-11.851852 70.874074 9.481481 74.903704 11.946667a16.57363 16.57363 0 0 1 5.499259 22.802963 16.526222 16.526222 0 0 1-22.755555 5.499259c-7.395556-4.456296-30.198519-14.696296-46.933334-8.865185-9.102222 3.176296-15.881481 10.951111-20.717037 23.703704-6.305185 16.782222-4.361481 32.237037 5.973334 47.312592 17.398519 25.362963 53.143704 40.391111 62.103703 40.865186 8.485926-1.422222 16.782222 4.02963 18.820741 12.562963a16.592593 16.592593 0 0 1-12.373333 19.958518c-1.706667 0.379259-3.602963 0.568889-5.688889 0.568889z m-1.896296-32.90074zM465.588148 876.278519c-160.18963 0-237.274074-94.957037-240.924444-99.602963a16.592593 16.592593 0 0 1 2.749629-23.324445 16.621037 16.621037 0 0 1 23.277037 2.702222c3.887407 4.882963 94.672593 114.962963 288.284445 80.213334 185.647407-33.28 176.782222-115.768889 176.687407-116.574815-1.517037-9.054815 4.551111-17.445926 13.605926-19.010371 9.054815-1.564444 17.635556 4.693333 19.152593 13.700741 0.805926 4.693333 16.924444 114.962963-203.567408 154.548148-28.34963 5.072593-54.802963 7.300741-79.217777 7.300741zM767.241481 720.782222a16.611556 16.611556 0 0 1-2.654814-32.995555c2.37037-0.426667 59.448889-10.666667 59.354074-57.742223 0-14.791111-3.745185-25.031111-10.998519-30.53037-12.136296-9.14963-33.801481-5.783704-41.102222-3.697778-8.817778 2.512593-17.967407-2.56-20.527407-11.377777s2.465185-17.967407 11.235555-20.527408c4.266667-1.232593 42.619259-11.614815 70.162963 8.96 16.118519 12.041481 24.32 31.241481 24.367408 57.078519 0.142222 60.34963-56.983704 85.617778-87.182223 90.548148-0.900741 0.142222-1.801481 0.237037-2.702222 0.237037z" fill="#424242" p-id="3652"></path><path d="M775.632593 657.161481h-13.890371c-9.14963 0-16.592593-7.442963-16.592592-16.592592s7.442963-16.592593 16.592592-16.592593h13.890371c9.14963 0 16.592593 7.442963 16.592592 16.592593s-7.442963 16.592593-16.592592 16.592592zM225.611852 685.605926c-3.934815 0-7.86963-1.374815-11.045926-4.171852l-17.635556-15.691852a16.583111 16.583111 0 1 1 22.044445-24.794074l17.635555 15.691852c6.826667 6.115556 7.442963 16.592593 1.374815 23.419259-3.271111 3.697778-7.822222 5.546667-12.420741 5.546667zM1902.601481 697.647407a16.625778 16.625778 0 0 1-11.235555-28.823703l12.041481-11.140741a16.625778 16.625778 0 0 1 23.466667 0.948148 16.625778 16.625778 0 0 1-0.948148 23.466667l-12.041482 11.140741c-3.176296 2.939259-7.205926 4.408889-11.235555 4.408888zM1567.762963 672c-9.14963 0-16.592593-7.442963-16.592593-16.592593v-14.838518c0-9.14963 7.442963-16.592593 16.592593-16.592593s16.592593 7.442963 16.592593 16.592593v14.838518c0 9.14963-7.442963 16.592593-16.592593 16.592593zM1762.844444 672c-9.14963 0-16.592593-7.442963-16.592592-16.592593v-14.838518c0-9.14963 7.442963-16.592593 16.592592-16.592593s16.592593 7.442963 16.592593 16.592593v14.838518c0 9.14963-7.442963 16.592593-16.592593 16.592593z" fill="#424242" p-id="3653"></path><path d="M1490.441481 697.268148a27.06963 16.213333 0 1 0 54.13926 0 27.06963 16.213333 0 1 0-54.13926 0Z" fill="#424242" p-id="3654"></path><path d="M1788.634074 697.268148a27.06963 16.213333 0 1 0 54.139259 0 27.06963 16.213333 0 1 0-54.139259 0Z" fill="#424242" p-id="3655"></path><path d="M1668.266667 723.057778c-15.597037 0-29.25037-6.58963-36.551111-12.278519a14.250667 14.250667 0 0 1-2.56-19.958518 14.184296 14.184296 0 0 1 19.863703-2.607408c1.991111 1.46963 19.247407 13.511111 35.602963 0.237037a14.26963 14.26963 0 0 1 20.005926 2.085926 14.26963 14.26963 0 0 1-2.085926 20.005926c-11.33037 9.197037-23.277037 12.468148-34.275555 12.468148zM1501.392593 592.924444c-8.533333 0-15.834074-6.58963-16.497778-15.265185a16.554667 16.554667 0 0 1 15.217778-17.872592c11.70963-0.948148 24.272593-14.933333 27.733333-19.768889 5.357037-7.395556 15.691852-9.14963 23.134815-3.792593a16.545185 16.545185 0 0 1 3.887407 23.087408c-2.275556 3.176296-22.945185 31.194074-52.053333 33.564444-0.474074 0-0.900741 0.047407-1.374815 0.047407zM1822.198519 592.924444h-0.474075c-30.625185-0.853333-54.992593-12.847407-74.571851-68.693333-8.77037-25.031111-27.211852-30.672593-27.970371-30.90963-8.865185-2.275556-14.08-11.282963-11.804444-20.148148s11.425185-14.174815 20.337778-11.899259c1.46963 0.379259 35.982222 9.718519 50.773333 52.005926 16.023704 45.700741 30.340741 46.127407 44.183704 46.506667 9.14963 0.237037 16.402963 7.86963 16.118518 17.066666-0.237037 9.007407-7.632593 16.118519-16.592592 16.118519zM1567.715556 593.493333a16.592593 16.592593 0 0 1-0.237037-33.185185c4.124444-0.18963 26.074074-3.034074 27.922962-37.925926 1.706667-32.331852 8.106667-54.565926 35.982223-72.628148a16.602074 16.602074 0 0 1 22.945185 4.882963c4.977778 7.68 2.797037 17.967407-4.882963 22.945185-15.028148 9.718519-19.484444 19.721481-20.906667 46.554074-2.844444 54.186667-40.817778 69.072593-60.539259 69.357037h-0.284444zM1881.268148 588.325926c-2.038519 0-4.124444-0.379259-6.115555-1.185185-24.367407-9.671111-34.085926-34.085926-35.982223-47.028148a16.587852 16.587852 0 0 1 14.032593-18.820741c9.007407-1.374815 17.398519 4.882963 18.820741 13.89037 0.094815 0.568889 2.986667 16.213333 15.36 21.096297 8.533333 3.365926 12.705185 13.037037 9.291852 21.522962a16.583111 16.583111 0 0 1-15.407408 10.477038zM1416.865185 844.8l-11.045926-31.288889s-0.331852 0.047407-0.805926 0.331852c0.379259-0.18963 0.900741-0.616296 1.137778-1.46963 0.805926-2.607407-0.094815-8.628148-5.025185-17.635555-16.971852-31.194074-0.568889-66.465185 0.142222-67.934815 3.934815-8.296296 13.842963-11.757037 22.139259-7.86963s11.757037 13.795556 7.86963 22.044445c-0.237037 0.568889-9.765926 21.807407-0.995556 37.878518 9.434074 17.351111 11.70963 32.711111 6.77926 45.605926-5.594074 14.506667-17.777778 19.484444-20.195556 20.337778zM2028.752593 810.477037c-5.357037 0-10.619259-2.607407-13.842963-7.395556-25.78963-38.684444-9.623704-70.115556 2.56-81.303703a16.625778 16.625778 0 0 1 23.466666 0.948148 16.545185 16.545185 0 0 1-0.758518 23.22963c-2.417778 2.465185-13.179259 15.454815 2.37037 38.731851 5.072593 7.632593 3.034074 17.92-4.598518 22.992593-2.844444 1.896296-6.020741 2.797037-9.197037 2.797037zM492.705185 770.74963c-1.991111 0-4.171852-0.142222-6.494815-0.474074a14.245926 14.245926 0 0 1-12.231111-15.976297 14.279111 14.279111 0 0 1 15.976297-12.231111c0.474074 0.047407 0.853333 0.094815 1.232592 0.142222-0.568889-2.654815-1.801481-6.21037-3.223704-8.912592-2.654815-5.072593-1.991111-11.33037 1.706667-15.691852 1.422222-1.706667 2.133333-3.176296 2.465185-4.219259-6.305185 3.697778-14.506667 1.991111-18.773333-4.077037-4.551111-6.4-2.986667-15.265185 3.413333-19.816297 12.088889-8.580741 27.164444-7.395556 36.598519 2.844445 7.395556 8.011852 10.761481 21.854815 3.365926 35.84 3.176296 8.77037 5.831111 21.854815-1.327408 32.047407-3.508148 5.025185-10.192593 10.524444-22.708148 10.524445zM631.22963 696.841481c-3.413333 0-6.874074-1.232593-9.623704-3.745185-3.223704-2.512593-19.342222-8.580741-34.465185-12.894815-5.025185-1.422222-8.865185-5.499259-10.002963-10.619259s0.616296-10.42963 4.598518-13.842963c15.312593-13.226667 37.546667-21.902222 38.494815-22.281481 7.300741-2.844444 15.54963 0.805926 18.394074 8.106666 2.844444 7.300741-0.805926 15.54963-8.106666 18.394075s-2.607407 1.042963-6.352593 2.749629c6.921481 2.891852 13.131852 6.115556 16.687407 9.339259 5.783704 5.30963 6.162963 14.317037 0.853334 20.100741-2.797037 3.081481-6.637037 4.598519-10.477037 4.598519zM369.066667 687.976296c-10.477037 0-18.962963-8.485926-18.962963-18.962963v-7.822222c0-10.477037 8.485926-18.962963 18.962963-18.962963s18.962963 8.485926 18.962963 18.962963v7.822222c0 10.477037-8.485926 18.962963-18.962963 18.962963zM941.748148 311.466667c-4.456296 0-8.912593-1.801481-12.183704-5.30963l-23.514074-25.362963a16.621037 16.621037 0 0 1 0.900741-23.466667 16.57837 16.57837 0 0 1 23.466667 0.900741l23.514074 25.362963a16.621037 16.621037 0 0 1-0.900741 23.466667c-3.176296 2.939259-7.253333 4.408889-11.282963 4.408889zM1238.565926 311.466667c-4.02963 0-8.106667-1.46963-11.282963-4.408889a16.621037 16.621037 0 0 1-0.900741-23.466667l23.514074-25.362963a16.621037 16.621037 0 0 1 23.466667-0.900741c6.731852 6.21037 7.111111 16.734815 0.900741 23.466667l-23.514074 25.362963c-3.271111 3.508148-7.727407 5.30963-12.183704 5.30963zM1090.180741 291.081481c-9.14963 0-16.592593-7.442963-16.592593-16.592592v-45.321482c0-9.14963 7.442963-16.592593 16.592593-16.592592s16.592593 7.442963 16.592592 16.592592v45.321482c0 9.14963-7.442963 16.592593-16.592592 16.592592zM574.388148 261.688889c-5.072593 0-10.05037-2.322963-13.321481-6.684445a16.635259 16.635259 0 0 1 3.413333-23.229629c9.291852-6.921481 10.002963-19.057778 10.002963-19.152593 0.474074-9.054815 8.059259-16.308148 17.161481-15.881481 9.054815 0.331852 16.213333 7.774815 15.976297 16.829629-0.047407 2.844444-1.28 28.444444-23.371852 44.847408-2.986667 2.228148-6.447407 3.271111-9.860741 3.271111z" fill="#424242" p-id="3656"></path></svg>